<?xml version="1.0" standalone="no"?>
<!DOCTYPE svg PUBLIC "-//W3C//DTD SVG 20010904//EN"
 "http://www.w3.org/TR/2001/REC-SVG-20010904/DTD/svg10.dtd">
<svg version="1.0" xmlns="http://www.w3.org/2000/svg"
 width="299.000000pt" height="299.000000pt" viewBox="0 0 299.000000 299.000000"
 preserveAspectRatio="xMidYMid meet">
<metadata>
Created by potrace 1.11, written by Peter Selinger 2001-2013
</metadata>
<g transform="translate(0.000000,299.000000) scale(0.100000,-0.100000)"
fill="#000000" stroke="none">
<path d="M458 2240 c-99 -53 -120 -184 -42 -264 58 -59 138 -69 211 -24 33 20
73 75 73 100 0 13 23 15 144 16 l144 0 64 -91 64 -92 362 -3 c326 -2 363 -1
369 14 3 9 0 20 -7 24 -7 4 -157 8 -334 8 -176 0 -331 1 -343 1 -15 1 -38 25
-79 84 -31 45 -63 87 -69 92 -7 6 -74 10 -160 10 l-147 -1 -11 25 c-22 51 -51
84 -91 102 -52 24 -101 23 -148 -1z m151 -55 c67 -57 62 -150 -12 -195 -92
-57 -205 30 -176 134 22 81 124 114 188 61z"/>
<path d="M2605 1959 c-212 -33 -331 -183 -320 -403 5 -105 36 -177 104 -245
46 -46 70 -61 126 -80 111 -36 217 -29 335 20 l46 20 -1 104 -1 104 28 12 c17
7 28 19 28 30 0 18 -9 19 -129 19 -105 0 -130 -3 -135 -15 -6 -16 22 -35 53
-35 48 0 51 -7 51 -105 l0 -93 -37 -13 c-55 -18 -144 -14 -196 9 -113 50 -168
159 -161 319 7 184 114 295 285 295 104 0 123 -11 139 -80 8 -31 15 -60 16
-64 1 -5 2 -12 3 -17 1 -10 39 -6 50 4 3 3 6 44 6 90 1 81 0 85 -24 94 -91 34
-176 44 -266 30z"/>
<path d="M864 1792 c-117 -55 -126 -219 -16 -291 48 -32 125 -33 176 -2 34 22
76 80 76 107 0 12 54 14 369 14 268 0 372 3 377 12 18 30 -25 33 -380 33
l-357 -1 -18 42 c-39 87 -141 126 -227 86z m151 -64 c109 -101 -23 -268 -146
-185 -96 64 -49 217 66 217 37 0 52 -6 80 -32z"/>
<path d="M142 1543 c-87 -42 -122 -147 -78 -232 65 -125 262 -110 306 23 l11
33 92 0 93 1 44 -82 c23 -44 49 -88 56 -96 11 -13 47 -15 228 -15 118 1 217 3
219 6 3 2 25 36 50 75 l45 71 310 0 c170 0 315 3 321 7 19 12 12 36 -11 37
-101 6 -627 4 -639 -3 -10 -4 -37 -39 -60 -78 l-44 -70 -194 2 -194 3 -49 90
c-27 49 -53 92 -57 95 -5 3 -54 4 -108 3 l-99 -2 -22 47 c-39 85 -140 124
-220 85z m132 -52 c39 -26 55 -57 56 -106 1 -123 -172 -160 -225 -49 -51 109
70 220 169 155z"/>
<path d="M1392 1010 l-56 -97 -273 0 -273 -1 -19 42 c-22 49 -43 70 -96 91
-100 43 -225 -43 -225 -155 0 -68 52 -139 118 -161 80 -26 186 27 208 103 l10
33 279 1 c154 1 285 2 290 3 6 1 35 44 65 96 l54 95 184 0 c155 0 184 2 189
15 3 9 2 19 -2 23 -3 4 -94 7 -201 8 l-195 1 -57 -97z m-717 -16 c36 -17 65
-65 65 -109 0 -87 -97 -143 -178 -101 -83 43 -81 169 2 210 40 20 70 20 111 0z"/>
</g>
</svg>
